<svg width="63" height="80" viewBox="0 0 63 80" fill="none" xmlns="http://www.w3.org/2000/svg">
<path fill-rule="evenodd" clip-rule="evenodd" d="M62.0234 26.5653L62.0258 26.5819C64.0937 40.7983 56.5003 53.3158 44.7392 58.9299C43.8134 59.4283 43.3003 59.9217 42.9884 60.6147C42.9691 60.6577 42.9487 60.7003 42.9274 60.7425L36.4098 73.6223L36.4031 73.6357L34.2351 77.9719C33.7052 79.0316 32.6187 79.6977 31.4339 79.6892C30.2491 79.6806 29.1723 78.999 28.6578 77.9317L26.5688 73.599L20.1507 60.6856C19.7261 59.9 19.0713 59.3223 18.5452 59.1057C18.4881 59.0822 18.4317 59.057 18.3761 59.0301C8.07407 54.0508 0.621307 43.5424 0.621307 31.1456C0.621307 13.0102 16.334 -1.41748 34.8036 0.637506C48.6665 1.95049 59.9518 12.8409 62.0234 26.5653Z" fill="white"/>
<path fill-rule="evenodd" clip-rule="evenodd" d="M43.3398 56.1554C53.9806 51.1068 60.8155 39.8447 58.9514 27.0292C57.0874 14.6796 46.9126 4.89324 34.4854 3.72819C17.8641 1.86412 3.72815 14.835 3.72815 31.1457C3.72815 42.2525 10.4078 51.7282 19.7282 56.2331C21.0485 56.7767 22.2136 57.9418 22.9126 59.2622L29.3592 72.2331L31.4563 76.5826L33.6311 72.2331L40.1553 59.3399C40.8544 57.7865 42.0194 56.8544 43.3398 56.1554ZM31.4563 46.0582C39.301 46.0582 45.7476 39.6893 45.7476 31.767C45.7476 23.9223 39.3786 17.4757 31.4563 17.4757C23.6116 17.4757 17.165 23.8447 17.165 31.767C17.165 39.6116 23.534 46.0582 31.4563 46.0582Z" fill="#66C61C"/>
<path opacity="0.1" d="M43.2621 56.0777C41.9417 56.7767 40.7767 57.7087 40.0777 59.2621L33.6311 72.233L31.4563 76.5825L29.2815 72.233L28.7379 70.9903L34.6408 59.2621C35.2621 57.7864 36.5048 56.7767 37.8252 56.0777C48.466 51.1068 55.301 39.767 53.4369 26.9515C51.5728 14.6796 41.4757 4.81553 28.9709 3.65048C28.8932 3.65048 28.7379 3.65048 28.6602 3.65048C30.6019 3.41747 32.5437 3.49514 34.5631 3.65048C47.068 4.81553 57.165 14.6019 59.0291 26.9515C60.7379 39.767 53.9029 51.1068 43.2621 56.0777Z" fill="black"/>
<path d="M29.5146 36.8156C29.2816 36.8156 29.1262 36.7379 28.9709 36.5826L24.3107 31.9224C24 31.6117 24 31.1457 24.3107 30.835C24.6214 30.5243 25.0874 30.5243 25.3981 30.835L29.5146 34.9515L37.4369 27.0292C37.7476 26.7185 38.2136 26.7185 38.5243 27.0292C38.8349 27.3398 38.8349 27.8059 38.5243 28.1165L30.0583 36.5826C29.9806 36.7379 29.7476 36.8156 29.5146 36.8156Z" fill="#66C61C"/>
<path fill-rule="evenodd" clip-rule="evenodd" d="M28.9709 36.5825C29.1262 36.7378 29.2815 36.8155 29.5146 36.8155C29.7476 36.8155 29.9806 36.7378 30.0582 36.5825L38.5243 28.1165C38.8349 27.8058 38.8349 27.3398 38.5243 27.0291C38.2136 26.7184 37.7476 26.7184 37.4369 27.0291L29.5146 34.9514L25.398 30.8349C25.0874 30.5242 24.6213 30.5242 24.3107 30.8349C24 31.1456 24 31.6116 24.3107 31.9223L28.9709 36.5825ZM29.5146 32.7546L26.4965 29.7365C25.5791 28.8192 24.1296 28.8192 23.2123 29.7365C22.2949 30.6538 22.2949 32.1034 23.2123 33.0207L27.8724 37.6809C28.0418 37.8503 28.2729 38.0391 28.5827 38.1767C28.8992 38.3174 29.2168 38.3689 29.5146 38.3689C29.7888 38.3689 30.1073 38.3252 30.4216 38.1995C30.6556 38.1059 30.9925 37.9222 31.2573 37.5803L39.6227 29.2149C40.54 28.2976 40.54 26.848 39.6227 25.9307C38.7054 25.0133 37.2558 25.0133 36.3385 25.9307L29.5146 32.7546Z" fill="#66C61C"/>
</svg>