<svg width="130" height="130" viewBox="0 0 130 130" fill="none" xmlns="http://www.w3.org/2000/svg">
<path d="M108.317 60.6883C107.662 23.9308 84.7005 10.8333 64.9946 10.8333C45.2888 10.8333 22.3275 23.9308 21.6721 60.6883C16.8459 63.8029 16.2446 69.1925 16.2446 73.125C16.2446 78.3142 21.0546 89.9383 27.8905 91.8233L28.1071 92.3542C31.0538 99.6829 38.8917 119.167 64.9946 119.167C91.0975 119.167 98.9355 99.6829 101.888 92.3542L102.104 91.8233C108.94 89.9329 113.75 78.3142 113.75 73.125C113.75 69.1925 113.149 63.8029 108.317 60.6883Z" fill="#A0A0AB"/>
<path d="M100.208 86.6667C99.6982 86.6674 99.1987 86.8115 98.7668 87.0826C98.3348 87.3536 97.9878 87.7407 97.7653 88.1996C97.4423 88.9017 97.1406 89.6134 96.8607 90.3337C94.0386 97.3429 87.4411 113.75 64.9945 113.75C42.5478 113.75 35.9503 97.3429 33.1282 90.3337C32.8473 89.6138 32.5457 88.9021 32.2236 88.1996C32.0031 87.7403 31.6573 87.3527 31.226 87.0815C30.7947 86.8103 30.2956 86.6665 29.7861 86.6667C26.3845 86.6667 21.6611 77.2687 21.6611 73.125C21.6611 67.3237 23.5082 65.6717 25.5015 64.7508C25.9718 64.5344 26.3703 64.1878 26.6496 63.752C26.929 63.3161 27.0776 62.8093 27.0778 62.2917C27.0778 28.3454 46.6645 16.25 64.9945 16.25C83.3245 16.25 102.911 28.3454 102.911 62.2917C102.911 62.8093 103.06 63.3161 103.339 63.752C103.619 64.1878 104.017 64.5344 104.487 64.7508C106.492 65.6717 108.333 67.3237 108.333 73.125C108.333 77.2687 103.604 86.6667 100.208 86.6667Z" fill="white" fill-opacity="0.5"/>
<path d="M25.1603 76.6242C25.1603 70.8229 27.0074 69.1708 29.0007 68.25C29.4706 68.0331 29.8686 67.6863 30.1479 67.2506C30.4272 66.8149 30.5761 66.3084 30.577 65.7908C30.577 31.8446 50.1636 19.7492 68.4936 19.7492C76.8245 19.7492 85.399 22.2896 92.2945 28.2046C84.9603 19.7708 74.8095 16.25 64.9945 16.25C46.6645 16.25 27.0778 28.3454 27.0778 62.2917C27.0776 62.8094 26.929 63.3161 26.6496 63.752C26.3703 64.1878 25.9718 64.5344 25.5015 64.7508C23.5082 65.6717 21.6611 67.3238 21.6611 73.125C21.6611 76.9004 25.572 84.955 28.8436 86.3742C26.807 83.2813 25.1603 79.0563 25.1603 76.6242Z" fill="white" fill-opacity="0.3"/>
<path d="M104.726 64.8754C105.332 66.1213 105.733 67.8763 105.733 70.525C105.733 74.6688 101.01 84.0667 97.6083 84.0667C97.0983 84.0674 96.5988 84.2115 96.1668 84.4826C95.7349 84.7536 95.3878 85.1407 95.1653 85.5996C94.8423 86.3017 94.5407 87.0134 94.2608 87.7338C91.4387 94.7429 84.8412 111.15 62.3945 111.15C52.5037 111.15 45.6949 107.96 40.9229 103.794C45.722 109.157 53.132 113.75 64.9945 113.75C87.4412 113.75 94.0387 97.3429 96.8608 90.3338C97.2183 89.4454 97.5162 88.7196 97.7653 88.1996C97.9868 87.7399 98.3336 87.3521 98.7658 87.0809C99.198 86.8097 99.698 86.6661 100.208 86.6667C103.61 86.6667 108.333 77.2688 108.333 73.125C108.333 67.5567 106.632 65.8233 104.726 64.8754Z" fill="black" fill-opacity="0.1"/>
<path d="M46.0363 70.4167C49.0278 70.4167 51.453 67.9916 51.453 65C51.453 62.0085 49.0278 59.5833 46.0363 59.5833C43.0447 59.5833 40.6196 62.0085 40.6196 65C40.6196 67.9916 43.0447 70.4167 46.0363 70.4167Z" fill="black" fill-opacity="0.7"/>
<path d="M83.9528 70.4167C86.9443 70.4167 89.3695 67.9916 89.3695 65C89.3695 62.0085 86.9443 59.5833 83.9528 59.5833C80.9613 59.5833 78.5361 62.0085 78.5361 65C78.5361 67.9916 80.9613 70.4167 83.9528 70.4167Z" fill="black" fill-opacity="0.7"/>
</svg>